<svg xmlns="http://www.w3.org/2000/svg" width="20" height="20"><path fill-rule="evenodd" fill="#B4BBC0" d="M16.5 10.999a1.5 1.5 0 110-3 1.5 1.5 0 010 3zm0-4A1.5 1.5 0 1116.499 4 1.5 1.5 0 0116.5 7zM16.5 3a1.5 1.5 0 110-3 1.5 1.5 0 010 3zm-5 11.999a1.5 1.5 0 110-3 1.5 1.5 0 010 3zm0-4a1.5 1.5 0 110-3 1.5 1.5 0 010 3zm0-4a1.5 1.5 0 110-3 1.5 1.5 0 010 3zM11.5 3a1.5 1.5 0 11.002-3.002A1.5 1.5 0 0111.5 3zm-5 11.999A1.5 1.5 0 116.499 12 1.5 1.5 0 016.5 15zm0-4a1.5 1.5 0 110-3 1.5 1.5 0 010 3zm0-4A1.5 1.5 0 116.499 4 1.5 1.5 0 016.5 7zM6.5 3a1.5 1.5 0 110-3 1.5 1.5 0 010 3zm-5 11.999A1.5 1.5 0 111.499 12 1.5 1.5 0 011.5 15zm0-4a1.5 1.5 0 110-3 1.5 1.5 0 010 3zm0-4A1.5 1.5 0 111.499 4 1.5 1.5 0 011.5 7zM1.5 3a1.5 1.5 0 110-3 1.5 1.5 0 010 3zm15 8.999A1.5 1.5 0 1116.499 15 1.5 1.5 0 0116.5 12z"/></svg>