<svg xmlns="http://www.w3.org/2000/svg" width="17px" height="14px"><path d="M4.034,-0.001 C4.248,0.009 4.401,0.071 4.578,0.113 C4.699,0.294 4.899,0.408 4.967,0.644 C4.967,1.606 4.967,2.568 4.967,3.529 C4.967,5.972 4.967,8.414 4.967,10.856 C4.980,10.856 4.993,10.856 5.006,10.856 C5.641,10.224 6.276,9.591 6.911,8.958 C7.041,8.873 7.329,8.745 7.572,8.806 C7.930,8.896 8.016,9.121 8.233,9.337 C8.293,10.165 7.817,10.389 7.377,10.818 C6.639,11.539 5.900,12.260 5.161,12.982 C4.928,13.209 4.395,13.909 4.073,13.969 C3.952,13.787 3.760,13.663 3.606,13.513 C3.270,13.184 2.933,12.855 2.596,12.526 C2.052,11.982 1.507,11.438 0.963,10.894 C0.717,10.666 0.471,10.438 0.224,10.211 C0.148,10.110 0.119,9.993 0.030,9.907 C0.015,9.698 -0.048,9.491 0.069,9.337 C0.171,8.957 0.746,8.634 1.235,8.882 C1.922,9.540 2.609,10.198 3.296,10.856 C3.296,7.465 3.296,4.073 3.296,0.682 C3.358,0.600 3.351,0.467 3.412,0.379 C3.511,0.235 3.714,0.158 3.840,0.037 C3.938,0.035 3.984,0.034 4.034,-0.001 ZM12.781,0.037 C12.820,0.037 12.859,0.037 12.898,0.037 C13.999,1.125 15.101,2.214 16.202,3.302 C16.427,3.522 17.287,4.153 16.902,4.668 C16.828,4.945 16.613,4.994 16.435,5.162 C16.280,5.174 16.124,5.187 15.969,5.200 C15.631,5.108 15.447,4.842 15.230,4.630 C14.712,4.137 14.193,3.643 13.675,3.150 C13.675,6.553 13.675,9.958 13.675,13.362 C13.514,13.560 13.485,13.804 13.209,13.893 C13.076,14.007 12.700,14.044 12.548,13.931 C11.760,13.719 12.004,12.233 12.004,11.273 C12.004,8.566 12.004,5.858 12.004,3.150 C11.991,3.150 11.978,3.150 11.965,3.150 C11.676,3.589 10.996,4.095 10.604,4.479 C10.404,4.673 10.198,4.996 9.943,5.124 C9.784,5.204 9.589,5.200 9.360,5.200 C9.238,5.102 9.043,5.080 8.932,4.972 C8.848,4.890 8.822,4.751 8.738,4.668 C8.699,3.730 9.312,3.462 9.827,2.960 C10.811,1.986 11.796,1.011 12.781,0.037 Z"></path></svg>